:FULLY-SPECIFIED
:FORCE-ALL-JOINTS-BE-3DOF
:DEGREES
883
root 3.85195 16.5305 30.5312 -10.8246 23.6768 359.35
lfemur -15.8095 19.9983 -19.0116
ltibia 40.4913 0 0
lfoot -12.9326 0.0690648 0
ltoes -1.37978 0 0
rfemur -80.7132 -24.4467 36.5168
rtibia 101.126 0 0
rfoot 19.264 26.205 0
rtoes -8.14353 0 0
lowerback 15.0059 -4.01209 -6.64789
upperback 4.97444 -6.28636 -2.38034
thorax -2.64296 -3.11384 2.26165
lowerneck -7.71871 -3.24517 1.71638
upperneck 4.65939 -4.84264 4.94114
head 2.93726 -2.18998 1.06474
lclavicle -3.12092e-14 -4.77083e-15 0
lhumerus -33.0312 -40.5423 88.3441
lradius 60.5977 0 0
lwrist 19.6497 0 0
lhand 25.8347 11.8689 0
lfingers 7.12502 0 0
lthumb 49.9264 33.1302 0
rclavicle -3.12092e-14 -4.77083e-15 0
rhumerus -49.2556 -29.6742 -46.9493
rradius 72.2992 0 0
rwrist -23.3678 0 0
rhand -47.7649 -54.4874 0
rfingers 7.12502 0 0
rthumb -20.4424 -803.431 0
884
root 3.83284 16.533 30.6055 -10.1849 24.3356 -0.851197
lfemur -16.6368 21.1366 -18.9124
ltibia 40.8052 -0 0
lfoot -13.1714 0.0662468 3.52327e-05
ltoes -1.23715 0 0
rfemur -77.9869 -25.5284 34.5626
rtibia 102.714 -0 0
rfoot 19.1598 24.6653 0.0084207
rtoes -7.55688 0 0
lowerback 14.2963 -4.1395 -6.64793
upperback 4.67036 -6.41559 -2.26507
thorax -2.55352 -3.17681 2.34654
lowerneck -7.71704 -3.46608 1.54216
upperneck 4.73671 -5.12834 4.99747
head 2.97825 -2.3313 1.09801
lclavicle -0 0 0
lhumerus -34.0723 -41.1812 89.7556
lradius 60.7709 -0 0
lwrist 18.7826 0 0
lhand 26.0455 11.858 -0.000120176
lfingers 0 -0 0
lthumb 50.1189 33.0145 -0.00116621
rclavicle -0 0 0
rhumerus -48.9374 -28.5085 -49.1608
rradius 74.8829 -0 0
rwrist -23.1767 0 0
rhand -47.2281 -55.141 -0.0183818
rfingers 0 -0 0
rthumb -19.9261 -84.1341 -0.0190213
885
root 3.81373 16.5355 30.6798 -9.54439 24.9964 -1.04533
lfemur -17.4686 22.2762 -18.8303
ltibia 41.1191 -0 0
lfoot -13.4101 0.0634287 5.87215e-05
ltoes -1.09452 0 0
rfemur -75.1968 -26.5235 32.5358
rtibia 104.302 -0 0
rfoot 19.0554 23.1256 0.0140379
rtoes -6.97022 0 0
lowerback 13.5865 -4.26691 -6.64638
upperback 4.36595 -6.54421 -2.14909
thorax -2.46416 -3.23991 2.43134
lowerneck -7.71471 -3.68698 1.36789
upperneck 4.81378 -5.41411 5.05343
head 3.01917 -2.47264 1.13118
lclavicle -0 0 0
lhumerus -35.1444 -41.8002 91.1963
lradius 60.944 -0 0
lwrist 17.9154 0 0
lhand 26.2564 11.8471 -0.000200294
lfingers 0 -0 0
lthumb 50.3113 32.8987 -0.00194369
rclavicle -0 0 0
rhumerus -48.6735 -27.333 -51.3411
rradius 77.4667 -0 0
rwrist -22.9856 0 0
rhand -46.6911 -55.7947 -0.0306385
rfingers 0 -0 0
rthumb -19.4096 -84.8374 -0.0317045
886
root 3.79462 16.538 30.7541 -8.90285 25.6591 -1.23233
lfemur -18.3056 23.4167 -18.7655
ltibia 41.433 -0 0
lfoot -13.6489 0.0606105 7.0466e-05
ltoes -0.951891 0 0
rfemur -72.3451 -27.4279 30.4396
rtibia 105.89 -0 0
rfoot 18.9508 21.5859 0.0168475
rtoes -6.38357 0 0
lowerback 12.8766 -4.39428 -6.64326
upperback 4.06119 -6.67221 -2.03238
thorax -2.37489 -3.30314 2.51604
lowerneck -7.71169 -3.90788 1.19357
upperneck 4.89061 -5.69996 5.10904
head 3.06001 -2.61401 1.16425
lclavicle -0 0 0
lhumerus -36.2475 -42.3987 92.6662
lradius 61.1172 -0 0
lwrist 17.0483 0 0
lhand 26.4672 11.8362 -0.000240353
lfingers 0 -0 0
lthumb 50.5038 32.783 -0.00233244
rclavicle -0 0 0
rhumerus -48.4623 -26.1495 -53.4929
rradius 80.0504 -0 0
rwrist -22.7945 0 0
rhand -46.154 -56.4484 -0.0367675
rfingers 0 -0 0
rthumb -18.893 -85.5408 -0.0380469
887
root 3.77551 16.5404 30.8285 -8.26009 26.3237 -1.41209
lfemur -19.1487 24.558 -18.7184
ltibia 41.747 -0 0
lfoot -13.8877 0.0577922 7.0466e-05
ltoes -0.809262 0 0
rfemur -69.4353 -28.2372 28.2785
rtibia 107.477 -0 0
rfoot 18.8463 20.0463 0.0168475
rtoes -5.79692 0 0
lowerback 12.1666 -4.52161 -6.63854
upperback 3.75609 -6.7996 -1.91496
thorax -2.28571 -3.36651 2.60065
lowerneck -7.70801 -4.12876 1.0192
upperneck 4.9672 -5.98588 5.16429
head 3.10077 -2.7554 1.19723
lclavicle -0 0 0
lhumerus -37.3818 -42.9758 94.1656
lradius 61.2904 -0 0
lwrist 16.1812 0 0
lhand 26.6781 11.8254 -0.000240353
lfingers 0 -0 0
lthumb 50.6962 32.6673 -0.00233244
rclavicle -0 0 0
rhumerus -48.3023 -24.9598 -55.6186
rradius 82.6342 -0 0
rwrist -22.6034 0 0
rhand -45.6169 -57.1023 -0.0367675
rfingers 0 -0 0
rthumb -18.3764 -86.2442 -0.0380469
888
root 3.7564 16.5429 30.9028 -7.61591 26.99 -1.58452
lfemur -19.9986 25.6998 -18.6895
ltibia 42.0609 -0 0
lfoot -14.1265 0.054974 5.87215e-05
ltoes -0.666632 0 0
rfemur -66.4716 -28.9475 26.0575
rtibia 109.065 -0 0
rfoot 18.7417 18.5066 0.0140379
rtoes -5.21027 0 0
lowerback 11.4564 -4.64887 -6.63225
upperback 3.45065 -6.92636 -1.79683
thorax -2.19662 -3.43 2.68517
lowerneck -7.70364 -4.34964 0.844752
upperneck 5.04356 -6.27187 5.21919
head 3.14146 -2.89681 1.23011
lclavicle -0 0 0
lhumerus -38.547 -43.5306 95.6945
lradius 61.4636 -0 0
lwrist 15.3141 0 0
lhand 26.8889 11.8145 -0.000200294
lfingers 0 -0 0
lthumb 50.8887 32.5516 -0.00194369
rclavicle -0 0 0
rhumerus -48.1922 -23.7655 -57.7208
rradius 85.2179 -0 0
rwrist -22.4123 0 0
rhand -45.0798 -57.756 -0.0306385
rfingers 0 -0 0
rthumb -17.8598 -86.9476 -0.0317045
889
root 3.73729 16.5454 30.9771 -6.97011 27.658 -1.74953
lfemur -20.8562 26.8419 -18.6793
ltibia 42.3748 -0 0
lfoot -14.3652 0.0521559 3.52327e-05
ltoes -0.524003 0 0
rfemur -63.4594 -29.5552 23.783
rtibia 110.653 -0 0
rfoot 18.6373 16.9669 0.0084207
rtoes -4.62361 0 0
lowerback 10.7461 -4.77604 -6.62437
upperback 3.14486 -7.0525 -1.67799
thorax -2.10762 -3.49363 2.76959
lowerneck -7.69861 -4.5705 0.670239
upperneck 5.11968 -6.55794 5.27373
head 3.18207 -3.03825 1.26289
lclavicle -0 0 0
lhumerus -39.7431 -44.0624 97.2527
lradius 61.6367 -0 0
lwrist 14.4469 0 0
lhand 27.0998 11.8036 -0.000120176
lfingers 0 -0 0
lthumb 51.0811 32.4358 -0.00116621
rclavicle -0 0 0
rhumerus -48.1305 -22.5685 -59.8018
rradius 87.8017 -0 0
rwrist -22.2212 0 0
rhand -44.5428 -58.4097 -0.0183818
rfingers 0 -0 0
rthumb -17.3433 -87.6509 -0.0190213
890
root 3.71818 16.5479 31.0514 -6.32248 28.3277 358.093
lfemur -21.7226 27.984 -18.6884
ltibia 42.6887 0 0
lfoot -14.604 0.0493379 0
ltoes -0.381373 0 0
rfemur -60.4049 -30.057 21.4621
rtibia 112.241 0 0
rfoot 18.5331 15.4272 0
rtoes -4.03696 0 0
lowerback 10.0357 -4.9031 -6.61491
upperback 2.83873 -7.178 -1.55844
thorax -2.0187 -3.55739 2.85392
lowerneck -7.69289 -4.79134 0.495652
upperneck 5.19557 -6.84408 5.32792
head 3.2226 -3.17971 1.29558
lclavicle -6.22693e-14 -3.18055e-15 0
lhumerus -40.9697 -44.5703 98.84
lradius 61.8099 0 0
lwrist 13.5798 0 0
lhand 27.3106 11.7927 0
lfingers 7.12502 0 0
lthumb 51.2736 32.3201 0
rclavicle -6.22693e-14 -3.18055e-15 0
rhumerus -48.1161 -21.3701 -61.8639
rradius 90.3854 0 0
rwrist -22.0301 0 0
rhand -44.006 -59.0633 0
rfingers 7.12502 0 0
rthumb -16.827 -808.354 0
891
root 3.71505 16.5313 31.115 -5.83076 28.1598 -1.79658
lfemur -22.3175 28.0342 -18.7271
ltibia 43.2844 -0 0
lfoot -14.78 0.0872427 -0.000349287
ltoes 0.11452 -0 0
rfemur -56.8841 -28.911 18.9235
rtibia 110.502 -0 0
rfoot 17.9469 12.1023 0.103128
rtoes -0.72078 0 0
lowerback 9.41458 -4.78972 -6.38293
upperback 2.62259 -6.96835 -1.55271
thorax -1.94094 -3.45417 2.67311
lowerneck -7.6413 -4.9961 0.264514
upperneck 5.15035 -7.08764 5.28181
head 3.21325 -3.30894 1.30875
lclavicle 0 0 0
lhumerus -42.1147 -44.3502 100.082
lradius 61.9305 -0 0
lwrist 13.5095 0 0
lhand 27.5272 12.3104 0.00587331
lfingers 0 -0 0
lthumb 51.4701 32.7213 0.00412916
rclavicle 0 0 0
rhumerus -47.4879 -19.0146 -64.5379
rradius 92.7045 -0 0
rwrist -20.3101 0 0
rhand -38.8493 -54.0913 1.41222
rfingers 0 -0 0
rthumb -11.8533 -83.3501 1.36859
892
root 3.71192 16.5147 31.1787 -5.34017 27.991 -1.68797
lfemur -22.9128 28.084 -18.7665
ltibia 43.8801 -0 0
lfoot -14.956 0.125148 -0.000582148
ltoes 0.610414 -0 0
rfemur -53.4638 -27.6333 16.4978
rtibia 108.764 -0 0
rfoot 17.3557 8.77649 0.172079
rtoes 2.5954 -0 0
lowerback 8.79403 -4.67384 -6.15223
upperback 2.40656 -6.75868 -1.54778
thorax -1.86351 -3.35071 2.49247
lowerneck -7.58886 -5.20064 0.0331181
upperneck 5.10531 -7.33123 5.23587
head 3.20386 -3.43816 1.32195
lclavicle 0 0 0
lhumerus -43.2484 -44.1125 101.313
lradius 62.0511 -0 0
lwrist 13.4392 0 0
lhand 27.7439 12.8281 0.00978916
lfingers 0 -0 0
lthumb 51.6667 33.1225 0.00688207
rclavicle 0 0 0
rhumerus -46.9832 -16.6344 -67.1496
rradius 95.0236 -0 0
rwrist -18.5902 0 0
rhand -33.5862 -49.0092 2.3669
rfingers 0 -0 0
rthumb -6.77611 -78.2434 2.29336
893
root 3.70879 16.4981 31.2423 -4.85072 27.8214 -1.58117
lfemur -23.5084 28.1335 -18.8064
ltibia 44.4758 -0 0
lfoot -15.132 0.163055 -0.000698578
ltoes 1.10631 -0 0
rfemur -50.1472 -26.2323 14.1898
rtibia 107.025 -0 0
rfoot 16.7615 5.45015 0.206615
rtoes 5.91158 -0 0
lowerback 8.17406 -4.55548 -5.92285
upperback 2.19064 -6.54899 -1.54365
thorax -1.78642 -3.247 2.31198
lowerneck -7.53557 -5.40498 -0.198543
upperneck 5.06044 -7.57486 5.19009
head 3.19445 -3.56739 1.33517
lclavicle 0 0 0
lhumerus -44.3701 -43.8575 102.532
lradius 62.1717 -0 0
lwrist 13.3689 0 0
lhand 27.9606 13.3458 0.0117472
lfingers 0 -0 0
lthumb 51.8633 33.5237 0.00825857
rclavicle 0 0 0
rhumerus -46.5968 -14.2349 -69.7096
rradius 97.3427 -0 0
rwrist -16.8702 0 0
rhand -28.2563 -43.8582 2.84832
rfingers 0 -0 0
rthumb -1.6341 -73.0721 2.75957
894
root 3.70566 16.4816 31.306 -4.36238 27.6511 -1.47617
lfemur -24.1043 28.1826 -18.8469
ltibia 45.0716 -0 0
lfoot -15.3079 0.200961 -0.000698578
ltoes 1.6022 -0 0
rfemur -46.9352 -24.7165 12.0027
rtibia 105.287 -0 0
rfoot 16.1664 2.12362 0.206615
rtoes 9.22776 -0 0
lowerback 7.55467 -4.43465 -5.6948
upperback 1.97483 -6.33928 -1.54031
thorax -1.70966 -3.14305 2.13165
lowerneck -7.48144 -5.6091 -0.430474
upperneck 5.01573 -7.81853 5.14449
head 3.185 -3.69661 1.34841
lclavicle 0 0 0
lhumerus -45.4791 -43.5855 103.739
lradius 62.2924 -0 0
lwrist 13.2985 0 0
lhand 28.1772 13.8636 0.0117472
lfingers 0 -0 0
lthumb 52.0598 33.9249 0.00825857
rclavicle 0 0 0
rhumerus -46.3239 -11.8213 -72.2282
rradius 99.6617 -0 0
rwrist -15.1503 0 0
rhand -22.9035 -38.6836 2.84832
rfingers 0 -0 0
rthumb 3.53 -67.8789 2.75957
895
root 3.70253 16.465 31.3696 -3.87516 27.4799 -1.37298
lfemur -24.7005 28.2313 -18.8881
ltibia 45.6673 -0 0
lfoot -15.4839 0.238867 -0.000582148
ltoes 2.09809 -0 0
rfemur -43.8271 -23.0941 9.93761
rtibia 103.548 -0 0
rfoot 15.5722 -1.20272 0.172079
rtoes 12.5439 -0 0
lowerback 6.93586 -4.31137 -5.46811
upperback 1.75912 -6.12957 -1.53778
thorax -1.63324 -3.03886 1.95148
lowerneck -7.42646 -5.813 -0.662682
upperneck 4.9712 -8.06223 5.09905
head 3.17552 -3.82583 1.36168
lclavicle 0 0 0
lhumerus -46.5748 -43.2967 104.932
lradius 62.413 -0 0
lwrist 13.2282 0 0
lhand 28.3939 14.3813 0.00978916
lfingers 0 -0 0
lthumb 52.2564 34.3261 0.00688207
rclavicle 0 0 0
rhumerus -46.1608 -9.39839 -74.7154
rradius 101.981 -0 0
rwrist -13.4303 0 0
rhand -17.5736 -33.5326 2.3669
rfingers 0 -0 0
rthumb 8.67201 -62.7076 2.29336
